<svg id="Layer_1" data-name="Layer 1" xmlns="http://www.w3.org/2000/svg" viewBox="0 0 24 24"><defs><style>.cls-1{fill:#525a67}</style></defs><path class="cls-1" d="M22.44 3.71A2 2 0 0 0 20.91 3H6.27a2 2 0 0 0-.85.19l-.17-.67A2 2 0 0 0 3.31 1H2.09a1 1 0 0 0 0 2h1.22l1.8 7.21.89 5.12A2 2 0 0 0 8 17h11.3a2 2 0 0 0 2-1.67l1.66-10a2 2 0 0 0-.52-1.62zM19.24 15H7.94L6.27 5h14.64z"/><circle class="cls-1" cx="9.59" cy="21" r="2"/><circle class="cls-1" cx="17.59" cy="21" r="2"/><path fill="none" d="M0 0h24v24H0z"/></svg>